<?xml version="1.0" standalone="no"?>
<!DOCTYPE svg PUBLIC "-//W3C//DTD SVG 20010904//EN"
 "http://www.w3.org/TR/2001/REC-SVG-20010904/DTD/svg10.dtd">
<svg version="1.0" xmlns="http://www.w3.org/2000/svg"
 width="700.000000pt" height="700.000000pt" viewBox="0 0 700.000000 700.000000"
 preserveAspectRatio="xMidYMid meet">
<metadata>
Created by potrace 1.11, written by Peter Selinger 2001-2013
</metadata>
<g transform="translate(0.000000,700.000000) scale(0.100000,-0.100000)"
fill="#000000" stroke="none">
<path d="M5549 6996 c-2 -3 -16 -7 -29 -10 -291 -55 -598 -207 -761 -377 -84
-87 -166 -233 -172 -306 -3 -39 19 -39 33 1 24 75 116 193 203 261 87 69 274
161 387 191 71 19 143 34 145 32 2 -2 -5 -37 -16 -78 -10 -41 -21 -100 -24
-130 -4 -30 -8 -66 -11 -80 -5 -35 -5 -282 1 -355 22 -275 41 -355 101 -410
33 -31 254 -345 254 -361 0 -2 11 -21 23 -42 31 -48 65 -111 197 -357 216
-404 375 -731 443 -910 8 -22 51 -91 96 -153 93 -131 157 -253 172 -332 33
-176 -4 -395 -91 -531 -37 -57 -120 -111 -246 -161 -120 -46 -165 -56 -251
-53 -158 5 -261 88 -369 299 -55 109 -68 111 -61 10 7 -89 10 -106 33 -178 46
-144 154 -256 300 -312 59 -23 85 -27 174 -27 141 0 241 26 415 109 145 69
236 188 271 357 23 108 20 275 -5 365 -5 17 -8 32 -6 32 1 0 -9 33 -25 74 -36
97 -88 189 -164 290 -146 194 -149 199 -204 381 -28 94 -65 220 -82 280 -163
576 -390 1081 -596 1330 -28 33 -53 65 -57 71 -12 21 -45 182 -72 359 -2 11
-6 36 -9 55 -15 94 -18 137 -21 281 -2 97 2 179 9 215 7 33 13 62 14 67 1 4 4
18 7 32 3 14 7 36 10 50 5 22 -4 33 -16 21z"/>
<path d="M3918 6880 c-50 -9 -100 -45 -132 -95 -53 -85 -25 -209 62 -270 38
-26 52 -30 112 -30 60 0 74 4 112 30 55 39 88 98 89 161 3 132 -112 229 -243
204z"/>
<path d="M3027 6706 c-162 -47 -199 -263 -60 -360 159 -110 375 57 305 236
-38 97 -147 152 -245 124z"/>
<path d="M2305 6382 c-113 -37 -172 -159 -130 -267 38 -100 140 -151 244 -123
140 39 192 209 98 323 -49 60 -143 89 -212 67z"/>
<path d="M4058 6316 c-1 -2 -42 -6 -89 -9 -47 -4 -117 -11 -155 -16 -38 -6
-90 -12 -115 -15 -177 -21 -502 -94 -690 -156 -412 -135 -737 -327 -1114 -660
-54 -47 -281 -274 -331 -330 -181 -203 -407 -571 -533 -870 -18 -41 -36 -84
-41 -95 -44 -100 -139 -403 -174 -556 -18 -79 -55 -293 -64 -369 -9 -75 -8
-410 1 -490 39 -329 162 -686 338 -983 58 -97 192 -290 232 -332 11 -11 31
-36 46 -55 76 -100 321 -344 459 -458 294 -243 685 -474 992 -589 36 -13 72
-27 80 -30 8 -3 17 -7 20 -8 3 -1 37 -11 75 -24 39 -12 77 -24 85 -26 8 -3 58
-16 110 -29 83 -22 161 -40 275 -61 43 -8 140 -22 205 -29 30 -4 75 -9 99 -12
30 -4 41 -3 37 5 -4 6 -17 11 -29 11 -27 1 -247 51 -342 79 -336 98 -757 294
-1040 485 -227 153 -390 289 -599 500 -357 362 -581 693 -713 1054 -125 346
-159 758 -93 1155 82 495 280 989 561 1402 37 55 76 109 86 120 10 11 50 58
90 105 108 129 232 260 354 375 98 92 172 155 273 232 39 29 76 56 81 61 13
10 109 72 165 107 78 49 310 162 450 219 237 96 555 194 754 232 12 2 44 8 71
14 71 15 170 31 207 34 3 1 9 3 12 6 5 6 -29 11 -36 6z"/>
<path d="M1600 5951 c-49 -27 -78 -61 -99 -117 -27 -74 -14 -140 38 -197 124
-136 347 -54 352 129 1 58 -9 88 -46 133 -58 69 -169 92 -245 52z"/>
<path d="M1095 5381 c-43 -19 -90 -68 -107 -110 -6 -14 -10 -50 -10 -78 0
-178 221 -264 344 -135 154 161 -25 415 -227 323z"/>
<path d="M737 4705 c-57 -20 -83 -43 -117 -107 -59 -111 24 -264 155 -283 113
-18 221 69 230 186 11 141 -133 251 -268 204z"/>
<path d="M4376 4145 c-20 -14 -39 -25 -42 -25 -2 0 -45 -25 -95 -56 -210 -130
-363 -334 -433 -577 -34 -117 -40 -179 -40 -377 0 -223 26 -386 98 -610 70
-219 195 -482 310 -653 42 -61 127 -186 189 -277 96 -141 118 -183 154 -280
48 -132 60 -175 68 -245 4 -27 11 -67 16 -88 20 -78 29 -408 16 -582 -7 -103
-35 -323 -43 -345 -3 -10 -2 -11 4 -5 28 30 109 303 141 475 41 216 49 331 37
520 -10 144 -14 169 -51 318 -43 166 -112 315 -236 502 -275 418 -443 917
-442 1315 0 303 116 565 311 703 l42 30 103 -105 c115 -119 270 -253 367 -318
132 -87 373 -197 486 -220 29 -6 39 -7 149 -20 33 -4 65 -10 70 -13 7 -3 7 -1
0 6 -5 6 -53 25 -105 42 -162 54 -359 172 -515 309 -159 140 -345 352 -454
519 -29 45 -57 82 -61 82 -4 0 -24 -11 -44 -25z"/>
<path d="M473 3889 c-18 -5 -50 -27 -72 -48 -79 -78 -81 -203 -3 -284 40 -43
79 -59 142 -60 140 -2 239 135 193 268 -35 103 -147 157 -260 124z"/>
<path d="M370 3010 c-97 -28 -153 -100 -152 -196 1 -170 192 -262 328 -157
108 82 94 264 -25 331 -43 24 -111 34 -151 22z"/>
<path d="M523 2196 c-18 -6 -49 -26 -69 -44 -144 -133 -38 -370 157 -349 169
18 238 221 119 346 -46 47 -142 69 -207 47z"/>
<path d="M3828 113 c6 -2 18 -2 25 0 6 3 1 5 -13 5 -14 0 -19 -2 -12 -5z"/>
</g>
</svg>
